<svg width="1600" height="900" viewBox="0 0 1600 900" fill="none" xmlns="http://www.w3.org/2000/svg">
  <rect width="1600" height="900" fill="#F6F3EC"/>
  <rect x="170" y="170" width="1260" height="560" rx="56" fill="#FFFFFF"/>
  <circle cx="420" cy="420" r="150" fill="#E8E0D3"/>
  <path d="M420 300c64 32 94 68 94 130 0 74-44 122-94 170-50-48-94-96-94-170 0-62 30-98 94-130Z" fill="#8A9A86"/>
  <rect x="352" y="405" width="136" height="126" rx="28" fill="#F7F4EE"/>
  <path d="M1080 300v260M980 300c70 0 100 44 100 104s-30 104-100 104M1180 300c-70 0-100 44-100 104s30 104 100 104" stroke="#C0B298" stroke-width="20" stroke-linecap="round"/>
  <text x="650" y="640" fill="#2D2C2A" font-size="76" font-family="Arial, sans-serif" font-weight="700">Nutricion</text>
  <text x="650" y="706" fill="#7A7975" font-size="34" font-family="Arial, sans-serif">Habitos sostenibles y salud alimentaria</text>
</svg>
