<svg width="1600" height="900" viewBox="0 0 1600 900" fill="none" xmlns="http://www.w3.org/2000/svg">
  <rect width="1600" height="900" fill="#F4F1EB"/>
  <rect x="160" y="160" width="1280" height="580" rx="56" fill="#FFFFFF"/>
  <rect x="290" y="290" width="360" height="320" rx="42" fill="#DDE9E3"/>
  <rect x="360" y="360" width="220" height="180" rx="24" fill="#F7F4EE"/>
  <path d="M450 320v40M450 540v40M360 450h40M540 450h40" stroke="#8A9A86" stroke-width="18" stroke-linecap="round"/>
  <circle cx="450" cy="450" r="54" stroke="#C0B298" stroke-width="16"/>
  <path d="M960 350c0-40 32-72 72-72h92c40 0 72 32 72 72v200c0 40-32 72-72 72h-92c-40 0-72-32-72-72V350Z" stroke="#8A9A86" stroke-width="22"/>
  <path d="M1015 398h126M1015 452h126M1015 506h72" stroke="#C0B298" stroke-width="16" stroke-linecap="round"/>
  <text x="760" y="655" fill="#2D2C2A" font-size="74" font-family="Arial, sans-serif" font-weight="700">Tecnologia avanzada</text>
  <text x="760" y="720" fill="#7A7975" font-size="34" font-family="Arial, sans-serif">INDIBA y terapias de apoyo a la recuperacion</text>
</svg>
