<svg width="1600" height="900" viewBox="0 0 1600 900" fill="none" xmlns="http://www.w3.org/2000/svg">
  <rect width="1600" height="900" fill="#F5F0E8"/>
  <rect x="170" y="170" width="1260" height="560" rx="56" fill="#FFFFFF"/>
  <circle cx="1130" cy="350" r="170" fill="#DCE8E2"/>
  <path d="M700 290c-72 52-112 130-112 218 0 62 21 119 57 165" stroke="#C0B298" stroke-width="28" stroke-linecap="round"/>
  <path d="M808 250c-62 38-99 109-99 188 0 54 18 105 49 146" stroke="#8A9A86" stroke-width="28" stroke-linecap="round"/>
  <path d="M905 217c-48 31-77 88-77 151 0 46 15 89 40 124" stroke="#2D2C2A" stroke-opacity="0.45" stroke-width="24" stroke-linecap="round"/>
  <path d="M470 560c62-28 120-38 176-30 49 7 92 26 136 50" stroke="#8A9A86" stroke-width="24" stroke-linecap="round"/>
  <path d="M938 520c33 17 67 26 102 26 44 0 84-14 122-41" stroke="#C0B298" stroke-width="20" stroke-linecap="round"/>
  <text x="230" y="320" fill="#2D2C2A" font-size="76" font-family="Arial, sans-serif" font-weight="700">Osteopatia</text>
  <text x="230" y="392" fill="#7A7975" font-size="34" font-family="Arial, sans-serif">Enfoque global para equilibrio, movilidad y alivio</text>
</svg>
